{
    "patcher": {
        "fileversion": 1,
        "appversion": {
            "major": 9,
            "minor": 1,
            "revision": 2,
            "architecture": "x64",
            "modernui": 1
        },
        "classnamespace": "box",
        "rect": [ 34.0, 77.0, 1298.0, 609.0 ],
        "boxes": [
            {
                "box": {
                    "id": "obj-48",
                    "maxclass": "comment",
                    "numinlets": 1,
                    "numoutlets": 0,
                    "patching_rect": [ 1031.6239420771599, 117.94871914386749, 150.0, 20.0 ],
                    "text": "hello world"
                }
            },
            {
                "box": {
                    "id": "obj-46",
                    "maxclass": "number",
                    "numinlets": 1,
                    "numoutlets": 2,
                    "outlettype": [ "", "bang" ],
                    "parameter_enable": 0,
                    "patching_rect": [ 942.0, 338.0, 50.0, 22.0 ]
                }
            },
            {
                "box": {
                    "id": "obj-44",
                    "maxclass": "message",
                    "numinlets": 2,
                    "numoutlets": 1,
                    "outlettype": [ "" ],
                    "patching_rect": [ 929.0598384737968, 217.94872015714645, 29.5, 22.0 ],
                    "text": "127"
                }
            },
            {
                "box": {
                    "id": "obj-42",
                    "maxclass": "comment",
                    "numinlets": 1,
                    "numoutlets": 0,
                    "patching_rect": [ 888.0341970324516, 171.7948735356331, 150.0, 20.0 ],
                    "text": "slider"
                }
            },
            {
                "box": {
                    "id": "obj-37",
                    "maxclass": "slider",
                    "numinlets": 1,
                    "numoutlets": 1,
                    "outlettype": [ "" ],
                    "parameter_enable": 0,
                    "patching_rect": [ 844.4444530010223, 147.0085484981537, 20.0, 140.0 ]
                }
            },
            {
                "box": {
                    "id": "obj-35",
                    "maxclass": "number",
                    "numinlets": 1,
                    "numoutlets": 2,
                    "outlettype": [ "", "bang" ],
                    "parameter_enable": 0,
                    "patching_rect": [ 643.1952827572823, 75.14793092012405, 50.0, 22.0 ]
                }
            },
            {
                "box": {
                    "id": "obj-31",
                    "linecount": 2,
                    "maxclass": "comment",
                    "numinlets": 1,
                    "numoutlets": 0,
                    "patching_rect": [ 322.8154950737953, 178.82353687286377, 150.0, 34.0 ],
                    "text": "use message box right cold inlet as console log"
                }
            },
            {
                "box": {
                    "id": "obj-29",
                    "linecount": 2,
                    "maxclass": "comment",
                    "numinlets": 1,
                    "numoutlets": 0,
                    "patching_rect": [ 671.122975051403, 355.61496287584305, 150.0, 34.0 ],
                    "text": "object (n) function based on name"
                }
            },
            {
                "box": {
                    "id": "obj-27",
                    "maxclass": "message",
                    "numinlets": 2,
                    "numoutlets": 1,
                    "outlettype": [ "" ],
                    "patching_rect": [ 443.3154950737953, 143.85026317834854, 29.5, 22.0 ],
                    "text": "0"
                }
            },
            {
                "box": {
                    "id": "obj-25",
                    "linecount": 3,
                    "maxclass": "comment",
                    "numinlets": 1,
                    "numoutlets": 0,
                    "patching_rect": [ 628.3422276377678, 162.56684017181396, 150.0, 48.0 ],
                    "text": "metronome\nrequires toggle on off\nargument sets time in ms"
                }
            },
            {
                "box": {
                    "id": "obj-23",
                    "maxclass": "comment",
                    "numinlets": 1,
                    "numoutlets": 0,
                    "patching_rect": [ 606.4170945882797, 224.06416457891464, 150.0, 20.0 ],
                    "text": "button (b) aka bang"
                }
            },
            {
                "box": {
                    "id": "obj-21",
                    "maxclass": "comment",
                    "numinlets": 1,
                    "numoutlets": 0,
                    "patching_rect": [ 628.3422276377678, 135.82887303829193, 150.0, 20.0 ],
                    "text": "toggle  (t) on/off"
                }
            },
            {
                "box": {
                    "id": "obj-19",
                    "linecount": 5,
                    "maxclass": "comment",
                    "numinlets": 1,
                    "numoutlets": 0,
                    "patching_rect": [ 600.8021214902401, 263.5000120997429, 150.0, 75.0 ],
                    "text": "message(m) rounf corners\nclickable when locked\nhot inlet - red - stores and bangs\ncold inlet - blue - stores"
                }
            },
            {
                "box": {
                    "id": "obj-17",
                    "maxclass": "toggle",
                    "numinlets": 1,
                    "numoutlets": 1,
                    "outlettype": [ "int" ],
                    "parameter_enable": 0,
                    "patching_rect": [ 513.5294331908226, 121.76471096277237, 24.0, 24.0 ]
                }
            },
            {
                "box": {
                    "id": "obj-15",
                    "maxclass": "newobj",
                    "numinlets": 2,
                    "numoutlets": 1,
                    "outlettype": [ "bang" ],
                    "patching_rect": [ 510.3499999999999, 178.82353687286377, 69.0, 22.0 ],
                    "text": "metro 1000"
                }
            },
            {
                "box": {
                    "id": "obj-10",
                    "maxclass": "button",
                    "numinlets": 1,
                    "numoutlets": 1,
                    "outlettype": [ "bang" ],
                    "parameter_enable": 0,
                    "patching_rect": [ 510.3499999999999, 230.0000095963478, 24.0, 24.0 ]
                }
            },
            {
                "box": {
                    "id": "obj-8",
                    "maxclass": "message",
                    "numinlets": 2,
                    "numoutlets": 1,
                    "outlettype": [ "" ],
                    "patching_rect": [ 510.3499999999999, 290.0000120997429, 66.0, 22.0 ],
                    "text": "hello world"
                }
            },
            {
                "box": {
                    "id": "obj-2",
                    "maxclass": "newobj",
                    "numinlets": 1,
                    "numoutlets": 0,
                    "patching_rect": [ 510.3499999999999, 347.647073328495, 91.0, 22.0 ],
                    "text": "print @popup 0"
                }
            }
        ],
        "lines": [
            {
                "patchline": {
                    "destination": [ "obj-8", 0 ],
                    "source": [ "obj-10", 0 ]
                }
            },
            {
                "patchline": {
                    "destination": [ "obj-10", 0 ],
                    "source": [ "obj-15", 0 ]
                }
            },
            {
                "patchline": {
                    "destination": [ "obj-15", 0 ],
                    "order": 0,
                    "source": [ "obj-17", 0 ]
                }
            },
            {
                "patchline": {
                    "destination": [ "obj-27", 1 ],
                    "order": 1,
                    "source": [ "obj-17", 0 ]
                }
            },
            {
                "patchline": {
                    "destination": [ "obj-15", 1 ],
                    "source": [ "obj-35", 0 ]
                }
            },
            {
                "patchline": {
                    "destination": [ "obj-17", 0 ],
                    "order": 2,
                    "source": [ "obj-37", 0 ]
                }
            },
            {
                "patchline": {
                    "destination": [ "obj-44", 1 ],
                    "order": 0,
                    "source": [ "obj-37", 0 ]
                }
            },
            {
                "patchline": {
                    "destination": [ "obj-46", 0 ],
                    "order": 1,
                    "source": [ "obj-37", 0 ]
                }
            },
            {
                "patchline": {
                    "destination": [ "obj-2", 0 ],
                    "source": [ "obj-8", 0 ]
                }
            }
        ],
        "autosave": 0,
        "oscreceiveudpport": 0
    }
}