{
    "patcher": {
        "fileversion": 1,
        "appversion": {
            "major": 9,
            "minor": 1,
            "revision": 2,
            "architecture": "x64",
            "modernui": 1
        },
        "classnamespace": "box",
        "rect": [ 35.0, 85.0, 613.0, 600.0 ],
        "boxes": [
            {
                "box": {
                    "id": "obj-85",
                    "linecount": 2,
                    "maxclass": "comment",
                    "numinlets": 1,
                    "numoutlets": 0,
                    "patching_rect": [ 349.00089967250824, 249.68843531608582, 99.15254473686218, 34.0 ],
                    "text": "prevents audio overloading"
                }
            },
            {
                "box": {
                    "id": "obj-83",
                    "maxclass": "comment",
                    "numinlets": 1,
                    "numoutlets": 0,
                    "patching_rect": [ 583.8235182762146, 118.38235068321228, 104.41176271438599, 20.0 ],
                    "text": "stack connection"
                }
            },
            {
                "box": {
                    "id": "obj-81",
                    "linecount": 2,
                    "maxclass": "comment",
                    "numinlets": 1,
                    "numoutlets": 0,
                    "patching_rect": [ 420.0000100135803, 337.5593295097351, 150.0, 34.0 ],
                    "text": "Second buffer used to stack and for playback"
                }
            },
            {
                "box": {
                    "id": "obj-75",
                    "linecount": 3,
                    "maxclass": "comment",
                    "numinlets": 1,
                    "numoutlets": 0,
                    "patching_rect": [ 499.09194564819336, 58.47457766532898, 150.0, 48.0 ],
                    "text": "Sends bang to clocker at start and message box at end"
                }
            },
            {
                "box": {
                    "id": "obj-73",
                    "maxclass": "comment",
                    "numinlets": 1,
                    "numoutlets": 0,
                    "patching_rect": [ 520.3389954566956, 226.28814005851746, 150.0, 20.0 ],
                    "text": "Start (0) and end time ($1)"
                }
            },
            {
                "box": {
                    "id": "obj-65",
                    "linecount": 2,
                    "maxclass": "comment",
                    "numinlets": 1,
                    "numoutlets": 0,
                    "patching_rect": [ 430.81356835365295, 174.89431953430176, 150.0, 34.0 ],
                    "text": "used to see time after each loop"
                }
            },
            {
                "box": {
                    "id": "obj-61",
                    "maxclass": "comment",
                    "numinlets": 1,
                    "numoutlets": 0,
                    "patching_rect": [ 778.6764557361603, 151.89431953430176, 150.0, 20.0 ],
                    "text": "added to reset loop"
                }
            },
            {
                "box": {
                    "id": "obj-59",
                    "linecount": 2,
                    "maxclass": "comment",
                    "numinlets": 1,
                    "numoutlets": 0,
                    "patching_rect": [ 765.4411618709564, 37.18843936920166, 150.0, 34.0 ],
                    "text": "used to tell groove audio speed"
                }
            },
            {
                "box": {
                    "id": "obj-57",
                    "linecount": 3,
                    "maxclass": "comment",
                    "numinlets": 1,
                    "numoutlets": 0,
                    "patching_rect": [ 741.9117505550385, 71.74726223945618, 150.0, 48.0 ],
                    "text": "converts number values to audio signals for the groove to read"
                }
            },
            {
                "box": {
                    "id": "obj-55",
                    "maxclass": "comment",
                    "numinlets": 1,
                    "numoutlets": 0,
                    "patching_rect": [ 707.3529276847839, 296.6884353160858, 61.02941060066223, 20.0 ],
                    "text": "Speaker"
                }
            },
            {
                "box": {
                    "id": "obj-53",
                    "linecount": 2,
                    "maxclass": "comment",
                    "numinlets": 1,
                    "numoutlets": 0,
                    "patching_rect": [ 454.41175603866577, 11.949152946472168, 150.0, 34.0 ],
                    "text": "Toggle to record and end audio"
                }
            },
            {
                "box": {
                    "id": "obj-51",
                    "maxclass": "comment",
                    "numinlets": 1,
                    "numoutlets": 0,
                    "patching_rect": [ 258.0882303714752, 13.559322357177734, 72.05882215499878, 20.0 ],
                    "text": "Audio input"
                }
            },
            {
                "box": {
                    "id": "obj-49",
                    "linecount": 3,
                    "maxclass": "comment",
                    "numinlets": 1,
                    "numoutlets": 0,
                    "patching_rect": [ 414.70589965581894, 378.30688416957855, 150.0, 48.0 ],
                    "text": "number value in msp will create the maximum size od loop"
                }
            },
            {
                "box": {
                    "id": "obj-47",
                    "linecount": 3,
                    "maxclass": "comment",
                    "numinlets": 1,
                    "numoutlets": 0,
                    "patching_rect": [ 258.2010622024536, 378.30688416957855, 150.0, 48.0 ],
                    "text": "play and loop are names given to link them to the recording and groove"
                }
            },
            {
                "box": {
                    "id": "obj-45",
                    "linecount": 2,
                    "maxclass": "comment",
                    "numinlets": 1,
                    "numoutlets": 0,
                    "patching_rect": [ 258.2010622024536, 337.5593295097351, 150.0, 34.0 ],
                    "text": "These buffers store the audio samples"
                }
            },
            {
                "box": {
                    "id": "obj-43",
                    "linecount": 9,
                    "maxclass": "comment",
                    "numinlets": 1,
                    "numoutlets": 0,
                    "patching_rect": [ 16.10169529914856, 22.881356477737427, 150.0, 131.0 ],
                    "text": "My patch is a stacking loop station allowing one audio to be recorded over another.\n\nI followed this tutorial to explore max: https://www.youtube.com/watch?v=yRg9CPwFNVw"
                }
            },
            {
                "box": {
                    "id": "obj-41",
                    "maxclass": "message",
                    "numinlets": 2,
                    "numoutlets": 1,
                    "outlettype": [ "" ],
                    "patching_rect": [ 338.0932283401489, 225.28814005851746, 71.0, 22.0 ],
                    "text": "normalize 1"
                }
            },
            {
                "box": {
                    "id": "obj-39",
                    "maxclass": "newobj",
                    "numinlets": 1,
                    "numoutlets": 3,
                    "outlettype": [ "bang", "bang", "bang" ],
                    "patching_rect": [ 337.0932283401489, 117.38235068321228, 42.0, 22.0 ],
                    "text": "t b b b"
                }
            },
            {
                "box": {
                    "id": "obj-38",
                    "maxclass": "message",
                    "numinlets": 2,
                    "numoutlets": 1,
                    "outlettype": [ "" ],
                    "patching_rect": [ 219.49153065681458, 225.28814005851746, 83.0, 22.0 ],
                    "text": "duplicate loop"
                }
            },
            {
                "box": {
                    "id": "obj-36",
                    "maxclass": "newobj",
                    "numinlets": 1,
                    "numoutlets": 2,
                    "outlettype": [ "float", "bang" ],
                    "patching_rect": [ 219.49153065681458, 313.5593295097351, 71.0, 22.0 ],
                    "text": "buffer~ play"
                }
            },
            {
                "box": {
                    "id": "obj-35",
                    "maxclass": "newobj",
                    "numinlets": 1,
                    "numoutlets": 2,
                    "outlettype": [ "bang", "bang" ],
                    "patching_rect": [ 462.50001072883606, 117.38235068321228, 32.0, 22.0 ],
                    "text": "t b b"
                }
            },
            {
                "box": {
                    "id": "obj-34",
                    "maxclass": "message",
                    "numinlets": 2,
                    "numoutlets": 1,
                    "outlettype": [ "" ],
                    "patching_rect": [ 516.5919456481934, 308.0717592537403, 115.0, 22.0 ],
                    "text": "clear, setsize 30000"
                }
            },
            {
                "box": {
                    "id": "obj-32",
                    "maxclass": "newobj",
                    "numinlets": 3,
                    "numoutlets": 3,
                    "outlettype": [ "bang", "bang", "" ],
                    "patching_rect": [ 450.00001072883606, 58.47457766532898, 44.0, 22.0 ],
                    "text": "sel 0 1"
                }
            },
            {
                "box": {
                    "id": "obj-31",
                    "maxclass": "message",
                    "numinlets": 2,
                    "numoutlets": 1,
                    "outlettype": [ "" ],
                    "patching_rect": [ 450.00001072883606, 225.28814005851746, 59.0, 22.0 ],
                    "text": "crop 0 $1"
                }
            },
            {
                "box": {
                    "id": "obj-27",
                    "linecount": 2,
                    "maxclass": "message",
                    "numinlets": 2,
                    "numoutlets": 1,
                    "outlettype": [ "" ],
                    "patching_rect": [ 378.81356835365295, 161.8644106388092, 50.0, 36.0 ],
                    "text": "1254949.4119"
                }
            },
            {
                "box": {
                    "id": "obj-25",
                    "maxclass": "newobj",
                    "numinlets": 2,
                    "numoutlets": 1,
                    "outlettype": [ "float" ],
                    "patching_rect": [ 438.5932283401489, 150.89431953430176, 47.0, 22.0 ],
                    "text": "clocker"
                }
            },
            {
                "box": {
                    "format": 6,
                    "id": "obj-24",
                    "maxclass": "flonum",
                    "numinlets": 1,
                    "numoutlets": 2,
                    "outlettype": [ "", "bang" ],
                    "parameter_enable": 0,
                    "patching_rect": [ 707.3529276847839, 48.953145027160645, 50.0, 22.0 ]
                }
            },
            {
                "box": {
                    "id": "obj-17",
                    "maxclass": "newobj",
                    "numinlets": 1,
                    "numoutlets": 1,
                    "outlettype": [ "signal" ],
                    "patching_rect": [ 707.3529276847839, 84.98255610466003, 31.0, 22.0 ],
                    "text": "sig~"
                }
            },
            {
                "box": {
                    "id": "obj-16",
                    "maxclass": "ezdac~",
                    "numinlets": 2,
                    "numoutlets": 0,
                    "patching_rect": [ 707.3529276847839, 249.68843531608582, 45.0, 45.0 ]
                }
            },
            {
                "box": {
                    "id": "obj-15",
                    "maxclass": "newobj",
                    "numinlets": 3,
                    "numoutlets": 2,
                    "outlettype": [ "signal", "signal" ],
                    "patching_rect": [ 707.3529276847839, 125.42373180389404, 126.0, 22.0 ],
                    "text": "groove~ play @loop 1"
                }
            },
            {
                "box": {
                    "id": "obj-14",
                    "maxclass": "toggle",
                    "numinlets": 1,
                    "numoutlets": 1,
                    "outlettype": [ "int" ],
                    "parameter_enable": 0,
                    "patching_rect": [ 418.64407777786255, 16.949152946472168, 24.0, 24.0 ]
                }
            },
            {
                "box": {
                    "id": "obj-11",
                    "maxclass": "ezadc~",
                    "numinlets": 1,
                    "numoutlets": 2,
                    "outlettype": [ "signal", "signal" ],
                    "patching_rect": [ 335.5932283401489, 13.559322357177734, 45.0, 45.0 ]
                }
            },
            {
                "box": {
                    "id": "obj-9",
                    "maxclass": "newobj",
                    "numinlets": 3,
                    "numoutlets": 1,
                    "outlettype": [ "signal" ],
                    "patching_rect": [ 335.5932283401489, 90.6779682636261, 76.0, 22.0 ],
                    "text": "record~ loop"
                }
            },
            {
                "box": {
                    "id": "obj-8",
                    "maxclass": "newobj",
                    "numinlets": 1,
                    "numoutlets": 2,
                    "outlettype": [ "float", "bang" ],
                    "patching_rect": [ 339.1534444093704, 313.5593295097351, 109.0, 22.0 ],
                    "text": "buffer~ loop 30000"
                }
            }
        ],
        "lines": [
            {
                "patchline": {
                    "destination": [ "obj-9", 0 ],
                    "source": [ "obj-11", 1 ]
                }
            },
            {
                "patchline": {
                    "destination": [ "obj-9", 0 ],
                    "source": [ "obj-11", 0 ]
                }
            },
            {
                "patchline": {
                    "destination": [ "obj-32", 0 ],
                    "order": 0,
                    "source": [ "obj-14", 0 ]
                }
            },
            {
                "patchline": {
                    "destination": [ "obj-9", 0 ],
                    "order": 1,
                    "source": [ "obj-14", 0 ]
                }
            },
            {
                "patchline": {
                    "destination": [ "obj-16", 1 ],
                    "order": 0,
                    "source": [ "obj-15", 0 ]
                }
            },
            {
                "patchline": {
                    "destination": [ "obj-16", 0 ],
                    "order": 1,
                    "source": [ "obj-15", 0 ]
                }
            },
            {
                "patchline": {
                    "destination": [ "obj-9", 0 ],
                    "order": 2,
                    "source": [ "obj-15", 0 ]
                }
            },
            {
                "patchline": {
                    "destination": [ "obj-15", 0 ],
                    "source": [ "obj-17", 0 ]
                }
            },
            {
                "patchline": {
                    "destination": [ "obj-17", 0 ],
                    "source": [ "obj-24", 0 ]
                }
            },
            {
                "patchline": {
                    "destination": [ "obj-27", 1 ],
                    "source": [ "obj-25", 0 ]
                }
            },
            {
                "patchline": {
                    "destination": [ "obj-31", 0 ],
                    "source": [ "obj-27", 0 ]
                }
            },
            {
                "patchline": {
                    "destination": [ "obj-8", 0 ],
                    "source": [ "obj-31", 0 ]
                }
            },
            {
                "patchline": {
                    "destination": [ "obj-35", 0 ],
                    "source": [ "obj-32", 1 ]
                }
            },
            {
                "patchline": {
                    "destination": [ "obj-39", 0 ],
                    "source": [ "obj-32", 0 ]
                }
            },
            {
                "patchline": {
                    "destination": [ "obj-8", 0 ],
                    "source": [ "obj-34", 0 ]
                }
            },
            {
                "patchline": {
                    "destination": [ "obj-25", 0 ],
                    "source": [ "obj-35", 0 ]
                }
            },
            {
                "patchline": {
                    "destination": [ "obj-34", 0 ],
                    "source": [ "obj-35", 1 ]
                }
            },
            {
                "patchline": {
                    "destination": [ "obj-36", 0 ],
                    "source": [ "obj-38", 0 ]
                }
            },
            {
                "patchline": {
                    "destination": [ "obj-27", 0 ],
                    "source": [ "obj-39", 2 ]
                }
            },
            {
                "patchline": {
                    "destination": [ "obj-38", 0 ],
                    "source": [ "obj-39", 0 ]
                }
            },
            {
                "patchline": {
                    "destination": [ "obj-41", 0 ],
                    "source": [ "obj-39", 1 ]
                }
            },
            {
                "patchline": {
                    "destination": [ "obj-36", 0 ],
                    "order": 1,
                    "source": [ "obj-41", 0 ]
                }
            },
            {
                "patchline": {
                    "destination": [ "obj-8", 0 ],
                    "order": 0,
                    "source": [ "obj-41", 0 ]
                }
            }
        ],
        "autosave": 0
    }
}