{
    "patcher": {
        "fileversion": 1,
        "appversion": {
            "major": 9,
            "minor": 1,
            "revision": 2,
            "architecture": "x64",
            "modernui": 1
        },
        "classnamespace": "box",
        "rect": [ 34.0, 77.0, 1298.0, 609.0 ],
        "boxes": [
            {
                "box": {
                    "bgcolor": [ 0.094118, 0.113725, 0.137255, 1.0 ],
                    "fgcolor": [ 1.0, 0.603922, 0.0, 1.0 ],
                    "id": "obj-61",
                    "interval": 50,
                    "logfreq": 1,
                    "markercolor": [ 0.301961, 0.337255, 0.403922, 1.0 ],
                    "maxclass": "spectroscope~",
                    "monochrome": 0,
                    "numinlets": 2,
                    "numoutlets": 1,
                    "outlettype": [ "" ],
                    "patching_rect": [ 972.0, 328.0, 120.0, 80.0 ],
                    "sonohicolor": [ 1.0, 1.0, 1.0, 1.0 ],
                    "sonolocolor": [ 0.094118, 0.113725, 0.137255, 1.0 ],
                    "sonomedcolor": [ 0.301961, 0.337255, 0.403922, 1.0 ],
                    "sonomedhicolor": [ 0.494118, 0.556863, 0.607843, 1.0 ],
                    "sonomedlocolor": [ 0.666667, 0.698039, 0.717647, 1.0 ],
                    "sonomonofgcolor": [ 0.094118, 0.113725, 0.137255, 1.0 ]
                }
            },
            {
                "box": {
                    "bgcolor": [ 0.094118, 0.113725, 0.137255, 1.0 ],
                    "fgcolor": [ 1.0, 0.603922, 0.0, 1.0 ],
                    "id": "obj-63",
                    "interval": 50,
                    "logfreq": 1,
                    "markercolor": [ 0.301961, 0.337255, 0.403922, 1.0 ],
                    "maxclass": "spectroscope~",
                    "monochrome": 0,
                    "numinlets": 2,
                    "numoutlets": 1,
                    "outlettype": [ "" ],
                    "patching_rect": [ 972.0, 230.13560009002686, 120.0, 80.0 ],
                    "prototypename": "M4L.spectro.black",
                    "sono": 1,
                    "sonohicolor": [ 1.0, 1.0, 1.0, 1.0 ],
                    "sonolocolor": [ 0.094118, 0.113725, 0.137255, 1.0 ],
                    "sonomedcolor": [ 0.301961, 0.337255, 0.403922, 1.0 ],
                    "sonomedhicolor": [ 0.494118, 0.556863, 0.607843, 1.0 ],
                    "sonomedlocolor": [ 0.666667, 0.698039, 0.717647, 1.0 ],
                    "sonomonofgcolor": [ 0.094118, 0.113725, 0.137255, 1.0 ]
                }
            },
            {
                "box": {
                    "automatic": 1,
                    "id": "obj-64",
                    "maxclass": "scope~",
                    "numinlets": 2,
                    "numoutlets": 0,
                    "patching_rect": [ 793.0, 410.0, 130.0, 130.0 ]
                }
            },
            {
                "box": {
                    "grid": 3,
                    "horizonal_divisions": 6,
                    "horizontal_divisions": 6,
                    "id": "obj-65",
                    "maxclass": "live.scope~",
                    "numinlets": 2,
                    "numoutlets": 1,
                    "outlettype": [ "bang" ],
                    "patching_rect": [ 787.0, 241.5254294872284, 153.0, 141.0 ],
                    "presentation": 1,
                    "presentation_rect": [ 760.0, 312.0, 153.0, 141.0 ],
                    "range": [ -0.25, 1.25 ],
                    "vertical_divisions": 6
                }
            },
            {
                "box": {
                    "id": "obj-53",
                    "maxclass": "comment",
                    "numinlets": 1,
                    "numoutlets": 0,
                    "patching_rect": [ 779.6610355377197, 30.0, 150.0, 20.0 ],
                    "text": "used to store presets"
                }
            },
            {
                "box": {
                    "id": "obj-51",
                    "linecount": 2,
                    "maxclass": "comment",
                    "numinlets": 1,
                    "numoutlets": 0,
                    "patching_rect": [ 178.38983535766602, 3.0, 150.0, 34.0 ],
                    "text": "preset sounds for user to test"
                }
            },
            {
                "box": {
                    "id": "obj-48",
                    "linecount": 2,
                    "maxclass": "comment",
                    "numinlets": 1,
                    "numoutlets": 0,
                    "patching_rect": [ 145.0, 160.169495344162, 98.0, 34.0 ],
                    "text": "umenu holding wavedorms"
                }
            },
            {
                "box": {
                    "id": "obj-42",
                    "maxclass": "comment",
                    "numinlets": 1,
                    "numoutlets": 0,
                    "patching_rect": [ 95.82627415657043, 19.5, 87.0, 20.0 ],
                    "text": "Start at launch"
                }
            },
            {
                "box": {
                    "id": "obj-60",
                    "linecount": 3,
                    "maxclass": "comment",
                    "numinlets": 1,
                    "numoutlets": 0,
                    "patching_rect": [ 776.3157820701599, 170.05262970924377, 150.0, 48.0 ],
                    "text": "inlet 1 = audio\ninlet 2 = cutoff\ninlet 3 = resonance"
                }
            },
            {
                "box": {
                    "id": "obj-58",
                    "maxclass": "newobj",
                    "numinlets": 2,
                    "numoutlets": 1,
                    "outlettype": [ "signal" ],
                    "patching_rect": [ 422.0, 420.0, 29.5, 22.0 ],
                    "text": "*~"
                }
            },
            {
                "box": {
                    "id": "obj-56",
                    "maxclass": "number",
                    "numinlets": 1,
                    "numoutlets": 2,
                    "outlettype": [ "", "bang" ],
                    "parameter_enable": 0,
                    "patching_rect": [ 539.0, 114.0, 50.0, 22.0 ]
                }
            },
            {
                "box": {
                    "id": "obj-49",
                    "maxclass": "number",
                    "numinlets": 1,
                    "numoutlets": 2,
                    "outlettype": [ "", "bang" ],
                    "parameter_enable": 0,
                    "patching_rect": [ 431.21693789958954, 200.00000309944153, 50.0, 22.0 ]
                }
            },
            {
                "box": {
                    "id": "obj-47",
                    "maxclass": "newobj",
                    "numinlets": 1,
                    "numoutlets": 1,
                    "outlettype": [ "" ],
                    "patching_rect": [ 798.0, 53.0, 73.0, 22.0 ],
                    "saved_object_attributes": {
                        "client_rect": [ 4, 44, 358, 172 ],
                        "parameter_enable": 0,
                        "parameter_mappable": 0,
                        "storage_rect": [ 583, 69, 1034, 197 ]
                    },
                    "text": "pattrstorage",
                    "varname": "u251004569"
                }
            },
            {
                "box": {
                    "format": 6,
                    "id": "obj-41",
                    "maxclass": "flonum",
                    "numinlets": 1,
                    "numoutlets": 2,
                    "outlettype": [ "", "bang" ],
                    "parameter_enable": 0,
                    "patching_rect": [ 739.2592350244522, 117.03703320026398, 50.0, 22.0 ]
                }
            },
            {
                "box": {
                    "id": "obj-39",
                    "maxclass": "ezdac~",
                    "numinlets": 2,
                    "numoutlets": 0,
                    "patching_rect": [ 649.2499868869781, 284.4444351196289, 45.0, 45.0 ]
                }
            },
            {
                "box": {
                    "id": "obj-37",
                    "maxclass": "number",
                    "numinlets": 1,
                    "numoutlets": 2,
                    "outlettype": [ "", "bang" ],
                    "parameter_enable": 0,
                    "patching_rect": [ 680.7407184243202, 117.03703320026398, 50.0, 22.0 ]
                }
            },
            {
                "box": {
                    "id": "obj-35",
                    "maxclass": "newobj",
                    "numinlets": 3,
                    "numoutlets": 1,
                    "outlettype": [ "signal" ],
                    "patching_rect": [ 726.1627647280693, 186.169495344162, 42.0, 22.0 ],
                    "text": "lores~"
                }
            },
            {
                "box": {
                    "id": "obj-34",
                    "lastchannelcount": 0,
                    "maxclass": "live.gain~",
                    "numinlets": 2,
                    "numoutlets": 5,
                    "outlettype": [ "signal", "signal", "", "float", "list" ],
                    "parameter_enable": 1,
                    "patching_rect": [ 632.7499868869781, 131.85184752941132, 48.0, 136.0 ],
                    "saved_attribute_attributes": {
                        "valueof": {
                            "parameter_longname": "live.gain~",
                            "parameter_mmax": 6.0,
                            "parameter_mmin": -70.0,
                            "parameter_modmode": 3,
                            "parameter_shortname": "live.gain~",
                            "parameter_type": 0,
                            "parameter_unitstyle": 4
                        }
                    },
                    "varname": "live.gain~"
                }
            },
            {
                "box": {
                    "id": "obj-33",
                    "maxclass": "newobj",
                    "numinlets": 1,
                    "numoutlets": 1,
                    "outlettype": [ "signal" ],
                    "patching_rect": [ 674.0, 29.0, 90.0, 22.0 ],
                    "text": "receive~ sound"
                }
            },
            {
                "box": {
                    "id": "obj-32",
                    "maxclass": "live.adsrui",
                    "numinlets": 10,
                    "numoutlets": 10,
                    "outlettype": [ "", "", "", "", "", "", "", "", "", "" ],
                    "patching_rect": [ 541.1764602661133, 377.20587515830994, 184.0, 68.0 ]
                }
            },
            {
                "box": {
                    "id": "obj-31",
                    "maxclass": "newobj",
                    "numinlets": 2,
                    "numoutlets": 1,
                    "outlettype": [ "float" ],
                    "patching_rect": [ 591.7499868869781, 200.00000309944153, 39.0, 22.0 ],
                    "text": "/ 127."
                }
            },
            {
                "box": {
                    "id": "obj-30",
                    "maxclass": "newobj",
                    "numinlets": 11,
                    "numoutlets": 3,
                    "outlettype": [ "signal", "signal", "" ],
                    "patching_rect": [ 549.3273727595806, 458.86208736896515, 175.84908750653267, 22.0 ],
                    "text": "live.adsr~"
                }
            },
            {
                "box": {
                    "id": "obj-29",
                    "maxclass": "newobj",
                    "numinlets": 5,
                    "numoutlets": 1,
                    "outlettype": [ "signal" ],
                    "patching_rect": [ 220.33898830413818, 374.0, 277.96610832214355, 22.0 ],
                    "text": "selector~ 4"
                }
            },
            {
                "box": {
                    "id": "obj-38",
                    "items": [ "none", ",", "sine", ",", "sawtooth", ",", "square", ",", "triangle" ],
                    "maxclass": "umenu",
                    "numinlets": 1,
                    "numoutlets": 3,
                    "outlettype": [ "int", "", "" ],
                    "parameter_enable": 0,
                    "patching_rect": [ 124.57627415657043, 196.05262970924377, 100.0, 22.0 ]
                }
            },
            {
                "box": {
                    "id": "obj-28",
                    "maxclass": "message",
                    "numinlets": 2,
                    "numoutlets": 1,
                    "outlettype": [ "" ],
                    "patching_rect": [ 124.57627415657043, 125.00000655651093, 29.5, 22.0 ],
                    "text": "1"
                }
            },
            {
                "box": {
                    "id": "obj-26",
                    "maxclass": "newobj",
                    "numinlets": 1,
                    "numoutlets": 1,
                    "outlettype": [ "bang" ],
                    "patching_rect": [ 124.57627415657043, 39.830509424209595, 58.0, 22.0 ],
                    "text": "loadbang"
                }
            },
            {
                "box": {
                    "id": "obj-25",
                    "maxclass": "newobj",
                    "numinlets": 3,
                    "numoutlets": 2,
                    "outlettype": [ "float", "float" ],
                    "patching_rect": [ 442.2288248538971, 64.0, 78.0, 22.0 ],
                    "text": "makenote 60"
                }
            },
            {
                "box": {
                    "id": "obj-24",
                    "maxclass": "newobj",
                    "numinlets": 1,
                    "numoutlets": 1,
                    "outlettype": [ "" ],
                    "patching_rect": [ 300.847464799881, 160.169495344162, 32.0, 22.0 ],
                    "text": "mtof"
                }
            },
            {
                "box": {
                    "id": "obj-23",
                    "maxclass": "kslider",
                    "numinlets": 2,
                    "numoutlets": 2,
                    "outlettype": [ "int", "int" ],
                    "parameter_enable": 0,
                    "patching_rect": [ 317.0, 3.0, 336.0, 53.0 ]
                }
            },
            {
                "box": {
                    "id": "obj-21",
                    "maxclass": "slider",
                    "numinlets": 1,
                    "numoutlets": 1,
                    "outlettype": [ "" ],
                    "parameter_enable": 0,
                    "patching_rect": [ 533.8235192298889, 199.99999618530273, 38.592749923467636, 90.40511584281921 ]
                }
            },
            {
                "box": {
                    "id": "obj-20",
                    "maxclass": "preset",
                    "numinlets": 1,
                    "numoutlets": 5,
                    "outlettype": [ "preset", "int", "preset", "int", "" ],
                    "patching_rect": [ 203.38983535766602, 25.423729419708252, 100.0, 40.0 ]
                }
            },
            {
                "box": {
                    "id": "obj-16",
                    "maxclass": "newobj",
                    "numinlets": 3,
                    "numoutlets": 1,
                    "outlettype": [ "signal" ],
                    "patching_rect": [ 483.0508589744568, 334.7457706928253, 40.0, 22.0 ],
                    "text": "tri~"
                }
            },
            {
                "box": {
                    "id": "obj-15",
                    "maxclass": "newobj",
                    "numinlets": 3,
                    "numoutlets": 1,
                    "outlettype": [ "signal" ],
                    "patching_rect": [ 405.0847554206848, 334.7457706928253, 40.0, 22.0 ],
                    "text": "rect~"
                }
            },
            {
                "box": {
                    "id": "obj-14",
                    "maxclass": "newobj",
                    "numinlets": 2,
                    "numoutlets": 1,
                    "outlettype": [ "signal" ],
                    "patching_rect": [ 327.11865186691284, 334.7457706928253, 37.0, 22.0 ],
                    "text": "saw~"
                }
            },
            {
                "box": {
                    "id": "obj-13",
                    "maxclass": "number",
                    "numinlets": 1,
                    "numoutlets": 2,
                    "outlettype": [ "", "bang" ],
                    "parameter_enable": 0,
                    "patching_rect": [ 473.7288248538971, 288.13560009002686, 50.0, 22.0 ]
                }
            },
            {
                "box": {
                    "id": "obj-12",
                    "maxclass": "number",
                    "numinlets": 1,
                    "numoutlets": 2,
                    "outlettype": [ "", "bang" ],
                    "parameter_enable": 0,
                    "patching_rect": [ 398.30509424209595, 288.13560009002686, 50.0, 22.0 ]
                }
            },
            {
                "box": {
                    "id": "obj-11",
                    "maxclass": "number",
                    "numinlets": 1,
                    "numoutlets": 2,
                    "outlettype": [ "", "bang" ],
                    "parameter_enable": 0,
                    "patching_rect": [ 323.7288212776184, 288.13560009002686, 50.0, 22.0 ]
                }
            },
            {
                "box": {
                    "id": "obj-10",
                    "maxclass": "newobj",
                    "numinlets": 2,
                    "numoutlets": 1,
                    "outlettype": [ "int" ],
                    "patching_rect": [ 473.7288248538971, 241.5254294872284, 29.5, 22.0 ],
                    "text": "* 5"
                }
            },
            {
                "box": {
                    "id": "obj-9",
                    "maxclass": "newobj",
                    "numinlets": 2,
                    "numoutlets": 1,
                    "outlettype": [ "int" ],
                    "patching_rect": [ 398.30509424209595, 242.372887134552, 29.5, 22.0 ],
                    "text": "/ 2"
                }
            },
            {
                "box": {
                    "id": "obj-8",
                    "maxclass": "newobj",
                    "numinlets": 2,
                    "numoutlets": 1,
                    "outlettype": [ "int" ],
                    "patching_rect": [ 323.7288212776184, 242.372887134552, 29.5, 22.0 ],
                    "text": "/ 3"
                }
            },
            {
                "box": {
                    "id": "obj-7",
                    "maxclass": "newobj",
                    "numinlets": 1,
                    "numoutlets": 0,
                    "patching_rect": [ 632.7499868869781, 334.7457706928253, 78.0, 22.0 ],
                    "text": "send~ sound"
                }
            },
            {
                "box": {
                    "id": "obj-6",
                    "maxclass": "number",
                    "numinlets": 1,
                    "numoutlets": 2,
                    "outlettype": [ "", "bang" ],
                    "parameter_enable": 0,
                    "patching_rect": [ 248.30509066581726, 288.13560009002686, 50.0, 22.0 ]
                }
            },
            {
                "box": {
                    "id": "obj-5",
                    "maxclass": "newobj",
                    "numinlets": 2,
                    "numoutlets": 1,
                    "outlettype": [ "signal" ],
                    "patching_rect": [ 248.1707376241684, 334.7457706928253, 45.73170840740204, 22.0 ],
                    "text": "cycle~"
                }
            },
            {
                "box": {
                    "id": "obj-4",
                    "maxclass": "gain~",
                    "multichannelvariant": 0,
                    "numinlets": 1,
                    "numoutlets": 2,
                    "outlettype": [ "signal", "" ],
                    "parameter_enable": 0,
                    "patching_rect": [ 213.97058415412903, 441.91175627708435, 22.0, 140.0 ]
                }
            },
            {
                "box": {
                    "id": "obj-3",
                    "maxclass": "number",
                    "numinlets": 1,
                    "numoutlets": 2,
                    "outlettype": [ "", "bang" ],
                    "parameter_enable": 0,
                    "patching_rect": [ 248.30509066581726, 200.00000476837158, 50.0, 22.0 ]
                }
            },
            {
                "box": {
                    "id": "obj-1",
                    "maxclass": "newobj",
                    "numinlets": 2,
                    "numoutlets": 1,
                    "outlettype": [ "int" ],
                    "patching_rect": [ 248.30509066581726, 242.372887134552, 29.5, 22.0 ],
                    "text": "/ 5"
                }
            }
        ],
        "lines": [
            {
                "patchline": {
                    "destination": [ "obj-6", 0 ],
                    "source": [ "obj-1", 0 ]
                }
            },
            {
                "patchline": {
                    "destination": [ "obj-13", 0 ],
                    "source": [ "obj-10", 0 ]
                }
            },
            {
                "patchline": {
                    "destination": [ "obj-14", 0 ],
                    "source": [ "obj-11", 0 ]
                }
            },
            {
                "patchline": {
                    "destination": [ "obj-15", 0 ],
                    "source": [ "obj-12", 0 ]
                }
            },
            {
                "patchline": {
                    "destination": [ "obj-16", 0 ],
                    "source": [ "obj-13", 0 ]
                }
            },
            {
                "patchline": {
                    "destination": [ "obj-29", 2 ],
                    "source": [ "obj-14", 0 ]
                }
            },
            {
                "patchline": {
                    "destination": [ "obj-29", 3 ],
                    "source": [ "obj-15", 0 ]
                }
            },
            {
                "patchline": {
                    "destination": [ "obj-29", 4 ],
                    "source": [ "obj-16", 0 ]
                }
            },
            {
                "patchline": {
                    "destination": [ "obj-21", 0 ],
                    "source": [ "obj-20", 0 ]
                }
            },
            {
                "patchline": {
                    "destination": [ "obj-15", 1 ],
                    "order": 1,
                    "source": [ "obj-21", 0 ]
                }
            },
            {
                "patchline": {
                    "destination": [ "obj-16", 1 ],
                    "order": 0,
                    "source": [ "obj-21", 0 ]
                }
            },
            {
                "patchline": {
                    "destination": [ "obj-5", 1 ],
                    "order": 2,
                    "source": [ "obj-21", 0 ]
                }
            },
            {
                "patchline": {
                    "destination": [ "obj-25", 1 ],
                    "source": [ "obj-23", 1 ]
                }
            },
            {
                "patchline": {
                    "destination": [ "obj-25", 0 ],
                    "source": [ "obj-23", 0 ]
                }
            },
            {
                "patchline": {
                    "destination": [ "obj-3", 0 ],
                    "source": [ "obj-24", 0 ]
                }
            },
            {
                "patchline": {
                    "destination": [ "obj-24", 0 ],
                    "source": [ "obj-25", 0 ]
                }
            },
            {
                "patchline": {
                    "destination": [ "obj-31", 0 ],
                    "source": [ "obj-25", 1 ]
                }
            },
            {
                "patchline": {
                    "destination": [ "obj-28", 0 ],
                    "order": 3,
                    "source": [ "obj-26", 0 ]
                }
            },
            {
                "patchline": {
                    "destination": [ "obj-37", 0 ],
                    "order": 1,
                    "source": [ "obj-26", 0 ]
                }
            },
            {
                "patchline": {
                    "destination": [ "obj-41", 0 ],
                    "order": 0,
                    "source": [ "obj-26", 0 ]
                }
            },
            {
                "patchline": {
                    "destination": [ "obj-56", 0 ],
                    "order": 2,
                    "source": [ "obj-26", 0 ]
                }
            },
            {
                "patchline": {
                    "destination": [ "obj-38", 0 ],
                    "source": [ "obj-28", 0 ]
                }
            },
            {
                "patchline": {
                    "destination": [ "obj-4", 0 ],
                    "order": 1,
                    "source": [ "obj-29", 0 ]
                }
            },
            {
                "patchline": {
                    "destination": [ "obj-58", 0 ],
                    "order": 0,
                    "source": [ "obj-29", 0 ]
                }
            },
            {
                "patchline": {
                    "destination": [ "obj-1", 0 ],
                    "source": [ "obj-3", 0 ]
                }
            },
            {
                "patchline": {
                    "destination": [ "obj-58", 1 ],
                    "source": [ "obj-30", 0 ]
                }
            },
            {
                "patchline": {
                    "destination": [ "obj-30", 0 ],
                    "source": [ "obj-31", 0 ]
                }
            },
            {
                "patchline": {
                    "destination": [ "obj-30", 10 ],
                    "source": [ "obj-32", 9 ]
                }
            },
            {
                "patchline": {
                    "destination": [ "obj-30", 9 ],
                    "source": [ "obj-32", 8 ]
                }
            },
            {
                "patchline": {
                    "destination": [ "obj-30", 8 ],
                    "source": [ "obj-32", 7 ]
                }
            },
            {
                "patchline": {
                    "destination": [ "obj-30", 7 ],
                    "source": [ "obj-32", 6 ]
                }
            },
            {
                "patchline": {
                    "destination": [ "obj-30", 6 ],
                    "source": [ "obj-32", 5 ]
                }
            },
            {
                "patchline": {
                    "destination": [ "obj-30", 5 ],
                    "source": [ "obj-32", 4 ]
                }
            },
            {
                "patchline": {
                    "destination": [ "obj-30", 4 ],
                    "source": [ "obj-32", 3 ]
                }
            },
            {
                "patchline": {
                    "destination": [ "obj-30", 3 ],
                    "source": [ "obj-32", 2 ]
                }
            },
            {
                "patchline": {
                    "destination": [ "obj-30", 2 ],
                    "source": [ "obj-32", 1 ]
                }
            },
            {
                "patchline": {
                    "destination": [ "obj-30", 1 ],
                    "source": [ "obj-32", 0 ]
                }
            },
            {
                "patchline": {
                    "destination": [ "obj-34", 0 ],
                    "source": [ "obj-33", 0 ]
                }
            },
            {
                "patchline": {
                    "destination": [ "obj-39", 1 ],
                    "order": 4,
                    "source": [ "obj-34", 0 ]
                }
            },
            {
                "patchline": {
                    "destination": [ "obj-39", 0 ],
                    "order": 5,
                    "source": [ "obj-34", 0 ]
                }
            },
            {
                "patchline": {
                    "destination": [ "obj-61", 0 ],
                    "order": 0,
                    "source": [ "obj-34", 0 ]
                }
            },
            {
                "patchline": {
                    "destination": [ "obj-63", 0 ],
                    "order": 1,
                    "source": [ "obj-34", 0 ]
                }
            },
            {
                "patchline": {
                    "destination": [ "obj-64", 0 ],
                    "order": 2,
                    "source": [ "obj-34", 0 ]
                }
            },
            {
                "patchline": {
                    "destination": [ "obj-65", 0 ],
                    "order": 3,
                    "source": [ "obj-34", 0 ]
                }
            },
            {
                "patchline": {
                    "destination": [ "obj-7", 0 ],
                    "order": 6,
                    "source": [ "obj-34", 0 ]
                }
            },
            {
                "patchline": {
                    "destination": [ "obj-34", 0 ],
                    "source": [ "obj-35", 0 ]
                }
            },
            {
                "patchline": {
                    "destination": [ "obj-35", 1 ],
                    "source": [ "obj-37", 0 ]
                }
            },
            {
                "patchline": {
                    "destination": [ "obj-29", 0 ],
                    "source": [ "obj-38", 0 ]
                }
            },
            {
                "patchline": {
                    "destination": [ "obj-35", 2 ],
                    "source": [ "obj-41", 0 ]
                }
            },
            {
                "patchline": {
                    "destination": [ "obj-15", 1 ],
                    "source": [ "obj-49", 0 ]
                }
            },
            {
                "patchline": {
                    "destination": [ "obj-29", 1 ],
                    "source": [ "obj-5", 0 ]
                }
            },
            {
                "patchline": {
                    "destination": [ "obj-34", 0 ],
                    "source": [ "obj-56", 0 ]
                }
            },
            {
                "patchline": {
                    "destination": [ "obj-35", 0 ],
                    "source": [ "obj-58", 0 ]
                }
            },
            {
                "patchline": {
                    "destination": [ "obj-5", 0 ],
                    "source": [ "obj-6", 0 ]
                }
            },
            {
                "patchline": {
                    "destination": [ "obj-11", 0 ],
                    "source": [ "obj-8", 0 ]
                }
            },
            {
                "patchline": {
                    "destination": [ "obj-12", 0 ],
                    "source": [ "obj-9", 0 ]
                }
            }
        ],
        "parameters": {
            "obj-34": [ "live.gain~", "live.gain~", 0 ],
            "inherited_shortname": 1
        },
        "autosave": 0
    }
}