{
    "patcher": {
        "fileversion": 1,
        "appversion": {
            "major": 9,
            "minor": 1,
            "revision": 2,
            "architecture": "x64",
            "modernui": 1
        },
        "classnamespace": "box",
        "rect": [ 34.0, 77.0, 1298.0, 609.0 ],
        "boxes": [
            {
                "box": {
                    "id": "obj-119",
                    "maxclass": "comment",
                    "numinlets": 1,
                    "numoutlets": 0,
                    "patching_rect": [ 841.038553237915, 24.389610290527344, 150.0, 20.0 ],
                    "text": "Click this to view an image"
                }
            },
            {
                "box": {
                    "id": "obj-115",
                    "linecount": 5,
                    "maxclass": "comment",
                    "numinlets": 1,
                    "numoutlets": 0,
                    "patching_rect": [ 930.7397364079952, 77.31091976165771, 150.0, 75.0 ],
                    "text": "NEW THING!: Using an fpic object you can insert an image, from a folder in your files, and put it in your patch!"
                }
            },
            {
                "box": {
                    "id": "obj-113",
                    "linecount": 2,
                    "maxclass": "comment",
                    "numinlets": 1,
                    "numoutlets": 0,
                    "patching_rect": [ 481.81817722320557, 137.01298570632935, 166.4705951809883, 34.0 ],
                    "text": "Default Velocity and Duration\n           Try changing it!"
                }
            },
            {
                "box": {
                    "id": "obj-111",
                    "maxclass": "comment",
                    "numinlets": 1,
                    "numoutlets": 0,
                    "patching_rect": [ 243.0, 330.69233894348145, 150.0, 20.0 ],
                    "text": "Move the Slider to control "
                }
            },
            {
                "box": {
                    "id": "obj-107",
                    "linecount": 3,
                    "maxclass": "comment",
                    "numinlets": 1,
                    "numoutlets": 0,
                    "patching_rect": [ 398.461576461792, 10.389610290527344, 150.0, 48.0 ],
                    "text": "Play notes on the kslider! Don't forget to try out the presets!"
                }
            },
            {
                "box": {
                    "id": "obj-105",
                    "linecount": 2,
                    "maxclass": "comment",
                    "numinlets": 1,
                    "numoutlets": 0,
                    "patching_rect": [ 501.5385093688965, 246.15386962890625, 150.0, 34.0 ],
                    "text": "Sound is moving through lowpass filter"
                }
            },
            {
                "box": {
                    "id": "obj-103",
                    "linecount": 2,
                    "maxclass": "comment",
                    "numinlets": 1,
                    "numoutlets": 0,
                    "patching_rect": [ 501.5385093688965, 445.2604773044586, 150.0, 34.0 ],
                    "text": "Used for graphical control.\n            Try it out!"
                }
            },
            {
                "box": {
                    "id": "obj-97",
                    "linecount": 2,
                    "maxclass": "comment",
                    "numinlets": 1,
                    "numoutlets": 0,
                    "patching_rect": [ 463.0385055541992, 599.0, 150.0, 34.0 ],
                    "text": "Used to create signal windows"
                }
            },
            {
                "box": {
                    "id": "obj-95",
                    "linecount": 2,
                    "maxclass": "comment",
                    "numinlets": 1,
                    "numoutlets": 0,
                    "patching_rect": [ 22.689074277877808, 577.3108899593353, 150.0, 34.0 ],
                    "text": "Used to choose input signals"
                }
            },
            {
                "box": {
                    "id": "obj-93",
                    "linecount": 3,
                    "maxclass": "comment",
                    "numinlets": 1,
                    "numoutlets": 0,
                    "patching_rect": [ 134.21052503585815, 340.78947043418884, 73.02631509304047, 48.0 ],
                    "text": "Waveforms and adding harmonics "
                }
            },
            {
                "box": {
                    "id": "obj-90",
                    "maxclass": "comment",
                    "numinlets": 1,
                    "numoutlets": 0,
                    "patching_rect": [ 956.923168182373, 361.53849601745605, 48.14814656972885, 20.0 ],
                    "text": "Scope"
                }
            },
            {
                "box": {
                    "id": "obj-88",
                    "maxclass": "comment",
                    "numinlets": 1,
                    "numoutlets": 0,
                    "patching_rect": [ 773.846227645874, 361.53849601745605, 68.0, 20.0 ],
                    "text": "Live.scope"
                }
            },
            {
                "box": {
                    "id": "obj-86",
                    "maxclass": "comment",
                    "numinlets": 1,
                    "numoutlets": 0,
                    "patching_rect": [ 916.9231643676758, 647.6923694610596, 87.0, 20.0 ],
                    "text": "Spectrogram"
                }
            },
            {
                "box": {
                    "id": "obj-84",
                    "maxclass": "comment",
                    "numinlets": 1,
                    "numoutlets": 0,
                    "patching_rect": [ 916.9231643676758, 556.9231300354004, 73.46164321899414, 20.0 ],
                    "text": "Sonogram"
                }
            },
            {
                "box": {
                    "id": "obj-82",
                    "maxclass": "fpic",
                    "numinlets": 1,
                    "numoutlets": 1,
                    "outlettype": [ "jit_matrix" ],
                    "patching_rect": [ 1098.4616432189941, 47.692312240600586, 841.5385417938232, 764.61545753479 ]
                }
            },
            {
                "box": {
                    "id": "obj-73",
                    "maxclass": "message",
                    "numinlets": 2,
                    "numoutlets": 1,
                    "outlettype": [ "" ],
                    "patching_rect": [ 843.1539344787598, 47.692312240600586, 211.0, 22.0 ],
                    "text": "read il_1080xN.5939796394_cohl.png"
                }
            },
            {
                "box": {
                    "id": "obj-46",
                    "maxclass": "newobj",
                    "numinlets": 1,
                    "numoutlets": 4,
                    "outlettype": [ "", "", "", "" ],
                    "patching_rect": [ 863.0770053863525, 300.0000286102295, 56.0, 22.0 ],
                    "restore": {
                        "flonum": [ 0.9 ],
                        "live.gain~": [ 0.6638066669554803 ],
                        "number[1]": [ 600 ],
                        "number[2]": [ 100 ],
                        "number[3]": [ 1000 ],
                        "waveforms": [ 1 ]
                    },
                    "text": "autopattr",
                    "varname": "u384000339"
                }
            },
            {
                "box": {
                    "id": "obj-45",
                    "maxclass": "message",
                    "numinlets": 2,
                    "numoutlets": 1,
                    "outlettype": [ "" ],
                    "patching_rect": [ 978.4616317749023, 209.2307891845703, 45.0, 22.0 ],
                    "text": "store 3"
                }
            },
            {
                "box": {
                    "id": "obj-44",
                    "maxclass": "message",
                    "numinlets": 2,
                    "numoutlets": 1,
                    "outlettype": [ "" ],
                    "patching_rect": [ 926.1539344787598, 209.2307891845703, 45.0, 22.0 ],
                    "text": "store 2"
                }
            },
            {
                "box": {
                    "id": "obj-43",
                    "maxclass": "message",
                    "numinlets": 2,
                    "numoutlets": 1,
                    "outlettype": [ "" ],
                    "patching_rect": [ 866.1539287567139, 209.2307891845703, 45.0, 22.0 ],
                    "text": "store 1"
                }
            },
            {
                "box": {
                    "id": "obj-36",
                    "maxclass": "message",
                    "numinlets": 2,
                    "numoutlets": 1,
                    "outlettype": [ "" ],
                    "patching_rect": [ 961.538553237915, 180.0000171661377, 29.5, 22.0 ],
                    "text": "3"
                }
            },
            {
                "box": {
                    "id": "obj-23",
                    "maxclass": "message",
                    "numinlets": 2,
                    "numoutlets": 1,
                    "outlettype": [ "" ],
                    "patching_rect": [ 916.9231643676758, 180.0000171661377, 29.5, 22.0 ],
                    "text": "2"
                }
            },
            {
                "box": {
                    "id": "obj-22",
                    "maxclass": "message",
                    "numinlets": 2,
                    "numoutlets": 1,
                    "outlettype": [ "" ],
                    "patching_rect": [ 876.9231605529785, 180.0000171661377, 29.5, 22.0 ],
                    "text": "1"
                }
            },
            {
                "box": {
                    "id": "obj-2",
                    "maxclass": "kslider",
                    "numinlets": 2,
                    "numoutlets": 2,
                    "outlettype": [ "int", "int" ],
                    "parameter_enable": 0,
                    "patching_rect": [ 316.2702260017395, 64.38462448120117, 336.0, 53.0 ],
                    "presentation": 1,
                    "presentation_rect": [ 316.2702260017395, 64.38462448120117, 336.0, 53.0 ],
                    "prototypename": "Synth Pt. 1"
                }
            },
            {
                "box": {
                    "id": "obj-77",
                    "maxclass": "newobj",
                    "numinlets": 1,
                    "numoutlets": 1,
                    "outlettype": [ "bang" ],
                    "patching_rect": [ 696.9231433868408, 300.0000286102295, 58.0, 22.0 ],
                    "text": "loadbang"
                }
            },
            {
                "box": {
                    "id": "obj-76",
                    "maxclass": "comment",
                    "numinlets": 1,
                    "numoutlets": 0,
                    "patching_rect": [ 731.3321477174759, 185.6154022216797, 71.95122122764587, 20.0 ],
                    "text": "Resonance"
                }
            },
            {
                "box": {
                    "id": "obj-74",
                    "maxclass": "comment",
                    "numinlets": 1,
                    "numoutlets": 0,
                    "patching_rect": [ 581.538516998291, 184.6154022216797, 70.73170900344849, 20.0 ],
                    "text": "freq cutoff"
                }
            },
            {
                "box": {
                    "hidden": 1,
                    "id": "obj-67",
                    "maxclass": "message",
                    "numinlets": 2,
                    "numoutlets": 1,
                    "outlettype": [ "" ],
                    "patching_rect": [ 672.3077564239502, 327.69233894348145, 189.0, 22.0 ],
                    "text": "600 100 0.5 1000 0 1 0 0 100 100"
                }
            },
            {
                "box": {
                    "fontname": "Arial",
                    "fontsize": 13.0,
                    "format": 6,
                    "id": "obj-27",
                    "maxclass": "flonum",
                    "maximum": 1.0,
                    "minimum": 0.0,
                    "numinlets": 1,
                    "numoutlets": 2,
                    "outlettype": [ "", "bang" ],
                    "parameter_enable": 1,
                    "patching_rect": [ 463.0769672393799, 356.92311096191406, 50.0, 23.0 ],
                    "presentation": 1,
                    "presentation_rect": [ 252.0, 426.0, 50.0, 23.0 ],
                    "saved_attribute_attributes": {
                        "valueof": {
                            "parameter_initial": [ 0.5 ],
                            "parameter_initial_enable": 1,
                            "parameter_invisible": 1,
                            "parameter_longname": "flonum[1]",
                            "parameter_mmax": 1.0,
                            "parameter_modmode": 0,
                            "parameter_shortname": "flonum",
                            "parameter_type": 0
                        }
                    },
                    "varname": "flonum"
                }
            },
            {
                "box": {
                    "fontname": "Arial",
                    "fontsize": 13.0,
                    "id": "obj-68",
                    "maxclass": "number",
                    "numinlets": 1,
                    "numoutlets": 2,
                    "outlettype": [ "", "bang" ],
                    "parameter_enable": 1,
                    "patching_rect": [ 495.3846626281738, 386.1538829803467, 50.0, 23.0 ],
                    "presentation": 1,
                    "presentation_rect": [ 283.0, 455.0, 50.0, 23.0 ],
                    "saved_attribute_attributes": {
                        "valueof": {
                            "parameter_initial": [ 1000 ],
                            "parameter_initial_enable": 1,
                            "parameter_invisible": 1,
                            "parameter_longname": "number[6]",
                            "parameter_modmode": 0,
                            "parameter_shortname": "number[2]",
                            "parameter_type": 3
                        }
                    },
                    "varname": "number[3]"
                }
            },
            {
                "box": {
                    "fontname": "Arial",
                    "fontsize": 13.0,
                    "id": "obj-69",
                    "maxclass": "number",
                    "numinlets": 1,
                    "numoutlets": 2,
                    "outlettype": [ "", "bang" ],
                    "parameter_enable": 1,
                    "patching_rect": [ 432.3077335357666, 327.69233894348145, 50.0, 23.0 ],
                    "presentation": 1,
                    "presentation_rect": [ 221.0, 397.0, 50.0, 23.0 ],
                    "saved_attribute_attributes": {
                        "valueof": {
                            "parameter_initial": [ 100 ],
                            "parameter_initial_enable": 1,
                            "parameter_invisible": 1,
                            "parameter_longname": "number[7]",
                            "parameter_modmode": 0,
                            "parameter_shortname": "number[2]",
                            "parameter_type": 3
                        }
                    },
                    "varname": "number[2]"
                }
            },
            {
                "box": {
                    "fontname": "Arial",
                    "fontsize": 13.0,
                    "id": "obj-17",
                    "maxclass": "number",
                    "numinlets": 1,
                    "numoutlets": 2,
                    "outlettype": [ "", "bang" ],
                    "parameter_enable": 1,
                    "patching_rect": [ 398.461576461792, 300.0000286102295, 50.0, 23.0 ],
                    "presentation": 1,
                    "presentation_rect": [ 186.0, 369.0, 50.0, 23.0 ],
                    "saved_attribute_attributes": {
                        "valueof": {
                            "parameter_initial": [ 600 ],
                            "parameter_initial_enable": 1,
                            "parameter_invisible": 1,
                            "parameter_longname": "number[0]",
                            "parameter_modmode": 0,
                            "parameter_shortname": "number[2]",
                            "parameter_type": 3
                        }
                    },
                    "varname": "number[1]"
                }
            },
            {
                "box": {
                    "fontname": "Arial",
                    "fontsize": 13.0,
                    "id": "obj-19",
                    "maxclass": "comment",
                    "numinlets": 1,
                    "numoutlets": 0,
                    "patching_rect": [ 461.5385055541992, 300.0000286102295, 73.0, 21.0 ],
                    "presentation": 1,
                    "presentation_rect": [ 243.0, 370.0, 73.0, 21.0 ],
                    "text": "attack (ms)",
                    "textcolor": [ 0.501961, 0.501961, 0.501961, 1.0 ]
                }
            },
            {
                "box": {
                    "fontname": "Arial",
                    "fontsize": 13.0,
                    "id": "obj-70",
                    "maxclass": "comment",
                    "numinlets": 1,
                    "numoutlets": 0,
                    "patching_rect": [ 486.15389251708984, 329.2308006286621, 73.0, 21.0 ],
                    "presentation": 1,
                    "presentation_rect": [ 274.0, 398.0, 73.0, 21.0 ],
                    "text": "decay (ms)",
                    "textcolor": [ 0.501961, 0.501961, 0.501961, 1.0 ]
                }
            },
            {
                "box": {
                    "fontname": "Arial",
                    "fontsize": 13.0,
                    "id": "obj-71",
                    "maxclass": "comment",
                    "numinlets": 1,
                    "numoutlets": 0,
                    "patching_rect": [ 516.9231262207031, 358.4615726470947, 78.0, 21.0 ],
                    "presentation": 1,
                    "presentation_rect": [ 305.0, 427.0, 78.0, 21.0 ],
                    "text": "sustain gain",
                    "textcolor": [ 0.501961, 0.501961, 0.501961, 1.0 ]
                }
            },
            {
                "box": {
                    "fontname": "Arial",
                    "fontsize": 13.0,
                    "id": "obj-72",
                    "maxclass": "comment",
                    "numinlets": 1,
                    "numoutlets": 0,
                    "patching_rect": [ 547.6923599243164, 386.1538829803467, 81.0, 21.0 ],
                    "presentation": 1,
                    "presentation_rect": [ 336.0, 456.0, 81.0, 21.0 ],
                    "text": "release (ms)",
                    "textcolor": [ 0.501961, 0.501961, 0.501961, 1.0 ]
                }
            },
            {
                "box": {
                    "bgcolor": [ 0.094118, 0.113725, 0.137255, 1.0 ],
                    "fgcolor": [ 1.0, 0.603922, 0.0, 1.0 ],
                    "id": "obj-61",
                    "interval": 50,
                    "logfreq": 1,
                    "markercolor": [ 0.301961, 0.337255, 0.403922, 1.0 ],
                    "maxclass": "spectroscope~",
                    "monochrome": 0,
                    "numinlets": 2,
                    "numoutlets": 1,
                    "outlettype": [ "" ],
                    "patching_rect": [ 793.8462295532227, 626.1539058685303, 120.0, 80.0 ],
                    "sonohicolor": [ 1.0, 1.0, 1.0, 1.0 ],
                    "sonolocolor": [ 0.094118, 0.113725, 0.137255, 1.0 ],
                    "sonomedcolor": [ 0.301961, 0.337255, 0.403922, 1.0 ],
                    "sonomedhicolor": [ 0.494118, 0.556863, 0.607843, 1.0 ],
                    "sonomedlocolor": [ 0.666667, 0.698039, 0.717647, 1.0 ],
                    "sonomonofgcolor": [ 0.094118, 0.113725, 0.137255, 1.0 ]
                }
            },
            {
                "box": {
                    "bgcolor": [ 0.094118, 0.113725, 0.137255, 1.0 ],
                    "fgcolor": [ 1.0, 0.603922, 0.0, 1.0 ],
                    "id": "obj-63",
                    "interval": 50,
                    "logfreq": 1,
                    "markercolor": [ 0.301961, 0.337255, 0.403922, 1.0 ],
                    "maxclass": "spectroscope~",
                    "monochrome": 0,
                    "numinlets": 2,
                    "numoutlets": 1,
                    "outlettype": [ "" ],
                    "patching_rect": [ 793.8462295532227, 536.9231281280518, 120.0, 80.0 ],
                    "prototypename": "M4L.spectro.black",
                    "sono": 1,
                    "sonohicolor": [ 1.0, 1.0, 1.0, 1.0 ],
                    "sonolocolor": [ 0.094118, 0.113725, 0.137255, 1.0 ],
                    "sonomedcolor": [ 0.301961, 0.337255, 0.403922, 1.0 ],
                    "sonomedhicolor": [ 0.494118, 0.556863, 0.607843, 1.0 ],
                    "sonomedlocolor": [ 0.666667, 0.698039, 0.717647, 1.0 ],
                    "sonomonofgcolor": [ 0.094118, 0.113725, 0.137255, 1.0 ]
                }
            },
            {
                "box": {
                    "automatic": 1,
                    "id": "obj-64",
                    "maxclass": "scope~",
                    "numinlets": 2,
                    "numoutlets": 0,
                    "patching_rect": [ 916.9231643676758, 386.1538829803467, 130.0, 130.0 ]
                }
            },
            {
                "box": {
                    "grid": 3,
                    "horizonal_divisions": 6,
                    "horizontal_divisions": 6,
                    "id": "obj-65",
                    "maxclass": "live.scope~",
                    "numinlets": 2,
                    "numoutlets": 1,
                    "outlettype": [ "bang" ],
                    "patching_rect": [ 740.0000705718994, 386.1538829803467, 153.0, 141.0 ],
                    "presentation": 1,
                    "presentation_rect": [ 760.0, 312.0, 153.0, 141.0 ],
                    "range": [ -0.25, 1.25 ],
                    "vertical_divisions": 6
                }
            },
            {
                "box": {
                    "id": "obj-53",
                    "maxclass": "comment",
                    "numinlets": 1,
                    "numoutlets": 0,
                    "patching_rect": [ 941.5385513305664, 256.9231014251709, 128.40237015485764, 20.0 ],
                    "text": "used to store presets"
                }
            },
            {
                "box": {
                    "id": "obj-51",
                    "linecount": 2,
                    "maxclass": "comment",
                    "numinlets": 1,
                    "numoutlets": 0,
                    "patching_rect": [ 156.92309188842773, 90.76923942565918, 150.0, 34.0 ],
                    "text": "preset sounds for user to test"
                }
            },
            {
                "box": {
                    "id": "obj-48",
                    "linecount": 2,
                    "maxclass": "comment",
                    "numinlets": 1,
                    "numoutlets": 0,
                    "patching_rect": [ 81.5384693145752, 243.07694625854492, 98.0, 34.0 ],
                    "text": "umenu holding wavedorms"
                }
            },
            {
                "box": {
                    "id": "obj-42",
                    "maxclass": "comment",
                    "numinlets": 1,
                    "numoutlets": 0,
                    "patching_rect": [ 33.84615707397461, 112.30770301818848, 87.0, 20.0 ],
                    "text": "Start at launch"
                }
            },
            {
                "box": {
                    "id": "obj-60",
                    "linecount": 3,
                    "maxclass": "comment",
                    "numinlets": 1,
                    "numoutlets": 0,
                    "patching_rect": [ 692.3077583312988, 243.07694625854492, 150.0, 48.0 ],
                    "text": "inlet 1 = audio\ninlet 2 = cutoff\ninlet 3 = resonance"
                }
            },
            {
                "box": {
                    "id": "obj-58",
                    "maxclass": "newobj",
                    "numinlets": 2,
                    "numoutlets": 1,
                    "outlettype": [ "signal" ],
                    "patching_rect": [ 311.7646872997284, 595.7982838153839, 29.5, 22.0 ],
                    "text": "*~"
                }
            },
            {
                "box": {
                    "id": "obj-49",
                    "maxclass": "number",
                    "numinlets": 1,
                    "numoutlets": 2,
                    "outlettype": [ "", "bang" ],
                    "parameter_enable": 0,
                    "patching_rect": [ 233.61343145370483, 363.0251884460449, 50.0, 22.0 ]
                }
            },
            {
                "box": {
                    "id": "obj-47",
                    "maxclass": "newobj",
                    "numinlets": 1,
                    "numoutlets": 1,
                    "outlettype": [ "" ],
                    "patching_rect": [ 866.1539287567139, 270.7692565917969, 73.0, 22.0 ],
                    "saved_object_attributes": {
                        "client_rect": [ 950, 233, 1680, 678 ],
                        "parameter_enable": 0,
                        "parameter_mappable": 0
                    },
                    "text": "pattrstorage",
                    "varname": "u251004569"
                }
            },
            {
                "box": {
                    "format": 6,
                    "id": "obj-41",
                    "maxclass": "flonum",
                    "numinlets": 1,
                    "numoutlets": 2,
                    "outlettype": [ "", "bang" ],
                    "parameter_enable": 0,
                    "patching_rect": [ 675.3846797943115, 184.6154022216797, 50.0, 22.0 ]
                }
            },
            {
                "box": {
                    "id": "obj-39",
                    "maxclass": "ezdac~",
                    "numinlets": 2,
                    "numoutlets": 0,
                    "patching_rect": [ 672.3077564239502, 564.6154384613037, 45.0, 45.0 ]
                }
            },
            {
                "box": {
                    "id": "obj-37",
                    "maxclass": "number",
                    "numinlets": 1,
                    "numoutlets": 2,
                    "outlettype": [ "", "bang" ],
                    "parameter_enable": 0,
                    "patching_rect": [ 530.7692813873291, 184.6154022216797, 50.0, 22.0 ]
                }
            },
            {
                "box": {
                    "id": "obj-35",
                    "maxclass": "newobj",
                    "numinlets": 3,
                    "numoutlets": 1,
                    "outlettype": [ "signal" ],
                    "patching_rect": [ 644.6154460906982, 243.07694625854492, 42.0, 22.0 ],
                    "text": "lores~"
                }
            },
            {
                "box": {
                    "id": "obj-34",
                    "lastchannelcount": 0,
                    "maxclass": "live.gain~",
                    "numinlets": 2,
                    "numoutlets": 5,
                    "outlettype": [ "signal", "signal", "", "float", "list" ],
                    "parameter_enable": 1,
                    "patching_rect": [ 669.0769844055176, 388.6538829803467, 48.0, 136.0 ],
                    "saved_attribute_attributes": {
                        "valueof": {
                            "parameter_longname": "live.gain~",
                            "parameter_mmax": 6.0,
                            "parameter_mmin": -70.0,
                            "parameter_modmode": 3,
                            "parameter_shortname": "live.gain~",
                            "parameter_type": 0,
                            "parameter_unitstyle": 4
                        }
                    },
                    "varname": "live.gain~"
                }
            },
            {
                "box": {
                    "id": "obj-33",
                    "maxclass": "newobj",
                    "numinlets": 1,
                    "numoutlets": 1,
                    "outlettype": [ "signal" ],
                    "patching_rect": [ 696.9231433868408, 95.38462448120117, 90.0, 22.0 ],
                    "text": "receive~ sound"
                }
            },
            {
                "box": {
                    "attack_time": 600.0,
                    "decay_time": 100.0,
                    "id": "obj-32",
                    "maxclass": "live.adsrui",
                    "numinlets": 10,
                    "numoutlets": 10,
                    "outlettype": [ "", "", "", "", "", "", "", "", "", "" ],
                    "patching_rect": [ 406.0385055541992, 485.0, 184.0, 68.0 ],
                    "presentation": 1,
                    "presentation_rect": [ 406.0385055541992, 485.0, 184.0, 68.0 ],
                    "release_time": 1000.0,
                    "sustain": 0.5
                }
            },
            {
                "box": {
                    "id": "obj-31",
                    "maxclass": "newobj",
                    "numinlets": 2,
                    "numoutlets": 1,
                    "outlettype": [ "float" ],
                    "patching_rect": [ 383.07695960998535, 243.07694625854492, 39.0, 22.0 ],
                    "text": "/ 127."
                }
            },
            {
                "box": {
                    "id": "obj-30",
                    "maxclass": "newobj",
                    "numinlets": 11,
                    "numoutlets": 3,
                    "outlettype": [ "signal", "signal", "" ],
                    "patching_rect": [ 412.0385055541992, 576.0, 157.0, 22.0 ],
                    "text": "live.adsr~ 600 100 0.5 1000"
                }
            },
            {
                "box": {
                    "id": "obj-29",
                    "maxclass": "newobj",
                    "numinlets": 5,
                    "numoutlets": 1,
                    "outlettype": [ "signal" ],
                    "patching_rect": [ 22.689074277877808, 536.9747579097748, 277.96610832214355, 22.0 ],
                    "text": "selector~ 4"
                }
            },
            {
                "box": {
                    "id": "obj-38",
                    "items": [ "none", ",", "sine", ",", "sawtooth", ",", "square", ",", "triangle" ],
                    "maxclass": "umenu",
                    "numinlets": 1,
                    "numoutlets": 3,
                    "outlettype": [ "int", "", "" ],
                    "parameter_enable": 0,
                    "patching_rect": [ 40.000003814697266, 283.0769500732422, 100.0, 22.0 ],
                    "varname": "waveforms"
                }
            },
            {
                "box": {
                    "id": "obj-28",
                    "maxclass": "message",
                    "numinlets": 2,
                    "numoutlets": 1,
                    "outlettype": [ "" ],
                    "patching_rect": [ 40.000003814697266, 187.69232559204102, 29.5, 22.0 ],
                    "text": "1"
                }
            },
            {
                "box": {
                    "id": "obj-26",
                    "maxclass": "newobj",
                    "numinlets": 1,
                    "numoutlets": 1,
                    "outlettype": [ "bang" ],
                    "patching_rect": [ 40.000003814697266, 135.38462829589844, 58.0, 22.0 ],
                    "text": "loadbang"
                }
            },
            {
                "box": {
                    "id": "obj-25",
                    "maxclass": "newobj",
                    "numinlets": 3,
                    "numoutlets": 2,
                    "outlettype": [ "float", "float" ],
                    "patching_rect": [ 377.92207431793213, 150.64934921264648, 108.0, 22.0 ],
                    "text": "makenote 100 100"
                }
            },
            {
                "box": {
                    "id": "obj-24",
                    "maxclass": "newobj",
                    "numinlets": 1,
                    "numoutlets": 1,
                    "outlettype": [ "" ],
                    "patching_rect": [ 166.15386199951172, 283.0769500732422, 32.0, 22.0 ],
                    "text": "mtof"
                }
            },
            {
                "box": {
                    "id": "obj-21",
                    "maxclass": "slider",
                    "numinlets": 1,
                    "numoutlets": 1,
                    "outlettype": [ "" ],
                    "parameter_enable": 0,
                    "patching_rect": [ 350.0, 382.8553614616394, 38.592749923467636, 90.40511584281921 ],
                    "presentation": 1,
                    "presentation_rect": [ 350.0, 382.8553614616394, 38.592749923467636, 90.40511584281921 ]
                }
            },
            {
                "box": {
                    "id": "obj-20",
                    "maxclass": "preset",
                    "numinlets": 1,
                    "numoutlets": 5,
                    "outlettype": [ "preset", "int", "preset", "int", "" ],
                    "patching_rect": [ 190.76924896240234, 112.30770301818848, 100.0, 40.0 ],
                    "presentation": 1,
                    "presentation_rect": [ 190.76924896240234, 112.30770301818848, 100.0, 40.0 ],
                    "preset_data": [
                        {
                            "number": 1,
                            "data": [ 5, "obj-17", "number", "int", 600, 5, "obj-21", "slider", "float", 64.0, 5, "obj-38", "umenu", "int", 1 ]
                        },
                        {
                            "number": 2,
                            "data": [ 5, "obj-17", "number", "int", 623, 5, "obj-21", "slider", "float", 64.0, 5, "obj-38", "umenu", "int", 3 ]
                        },
                        {
                            "number": 3,
                            "data": [ 5, "obj-17", "number", "int", 623, 5, "obj-21", "slider", "float", 64.0, 5, "obj-38", "umenu", "int", 4 ]
                        }
                    ]
                }
            },
            {
                "box": {
                    "id": "obj-16",
                    "maxclass": "newobj",
                    "numinlets": 3,
                    "numoutlets": 1,
                    "outlettype": [ "signal" ],
                    "patching_rect": [ 285.7142686843872, 499.15963411331177, 40.0, 22.0 ],
                    "text": "tri~"
                }
            },
            {
                "box": {
                    "id": "obj-15",
                    "maxclass": "newobj",
                    "numinlets": 3,
                    "numoutlets": 1,
                    "outlettype": [ "signal" ],
                    "patching_rect": [ 207.56301283836365, 499.15963411331177, 40.0, 22.0 ],
                    "text": "rect~"
                }
            },
            {
                "box": {
                    "id": "obj-14",
                    "maxclass": "newobj",
                    "numinlets": 2,
                    "numoutlets": 1,
                    "outlettype": [ "signal" ],
                    "patching_rect": [ 129.4117569923401, 499.15963411331177, 37.0, 22.0 ],
                    "text": "saw~"
                }
            },
            {
                "box": {
                    "id": "obj-13",
                    "maxclass": "number",
                    "numinlets": 1,
                    "numoutlets": 2,
                    "outlettype": [ "", "bang" ],
                    "parameter_enable": 0,
                    "patching_rect": [ 276.4705717563629, 451.2604773044586, 50.0, 22.0 ]
                }
            },
            {
                "box": {
                    "id": "obj-12",
                    "maxclass": "number",
                    "numinlets": 1,
                    "numoutlets": 2,
                    "outlettype": [ "", "bang" ],
                    "parameter_enable": 0,
                    "patching_rect": [ 199.99998807907104, 451.2604773044586, 50.0, 22.0 ]
                }
            },
            {
                "box": {
                    "id": "obj-11",
                    "maxclass": "number",
                    "numinlets": 1,
                    "numoutlets": 2,
                    "outlettype": [ "", "bang" ],
                    "parameter_enable": 0,
                    "patching_rect": [ 126.05041265487671, 451.2604773044586, 50.0, 22.0 ]
                }
            },
            {
                "box": {
                    "id": "obj-10",
                    "maxclass": "newobj",
                    "numinlets": 2,
                    "numoutlets": 1,
                    "outlettype": [ "int" ],
                    "patching_rect": [ 276.4705717563629, 405.04199266433716, 29.5, 22.0 ],
                    "text": "* 2"
                }
            },
            {
                "box": {
                    "id": "obj-9",
                    "maxclass": "newobj",
                    "numinlets": 2,
                    "numoutlets": 1,
                    "outlettype": [ "int" ],
                    "patching_rect": [ 199.99998807907104, 405.04199266433716, 29.5, 22.0 ],
                    "text": "* 2"
                }
            },
            {
                "box": {
                    "id": "obj-8",
                    "maxclass": "newobj",
                    "numinlets": 2,
                    "numoutlets": 1,
                    "outlettype": [ "int" ],
                    "patching_rect": [ 126.05041265487671, 405.04199266433716, 29.5, 22.0 ],
                    "text": "* 2"
                }
            },
            {
                "box": {
                    "id": "obj-7",
                    "maxclass": "newobj",
                    "numinlets": 1,
                    "numoutlets": 0,
                    "patching_rect": [ 304.2016625404358, 638.655424118042, 78.0, 22.0 ],
                    "text": "send~ sound"
                }
            },
            {
                "box": {
                    "id": "obj-6",
                    "maxclass": "number",
                    "numinlets": 1,
                    "numoutlets": 2,
                    "outlettype": [ "", "bang" ],
                    "parameter_enable": 0,
                    "patching_rect": [ 50.420165061950684, 451.2604773044586, 50.0, 22.0 ]
                }
            },
            {
                "box": {
                    "id": "obj-5",
                    "maxclass": "newobj",
                    "numinlets": 2,
                    "numoutlets": 1,
                    "outlettype": [ "signal" ],
                    "patching_rect": [ 50.420165061950684, 499.15963411331177, 43.0, 22.0 ],
                    "text": "cycle~"
                }
            },
            {
                "box": {
                    "id": "obj-3",
                    "maxclass": "number",
                    "numinlets": 1,
                    "numoutlets": 2,
                    "outlettype": [ "", "bang" ],
                    "parameter_enable": 0,
                    "patching_rect": [ 50.420165061950684, 363.0251884460449, 50.0, 22.0 ]
                }
            },
            {
                "box": {
                    "id": "obj-1",
                    "maxclass": "newobj",
                    "numinlets": 2,
                    "numoutlets": 1,
                    "outlettype": [ "int" ],
                    "patching_rect": [ 50.420165061950684, 405.04199266433716, 29.5, 22.0 ],
                    "text": "* 2"
                }
            }
        ],
        "lines": [
            {
                "patchline": {
                    "destination": [ "obj-6", 0 ],
                    "source": [ "obj-1", 0 ]
                }
            },
            {
                "patchline": {
                    "destination": [ "obj-13", 0 ],
                    "source": [ "obj-10", 0 ]
                }
            },
            {
                "patchline": {
                    "destination": [ "obj-14", 0 ],
                    "source": [ "obj-11", 0 ]
                }
            },
            {
                "patchline": {
                    "destination": [ "obj-15", 0 ],
                    "source": [ "obj-12", 0 ]
                }
            },
            {
                "patchline": {
                    "destination": [ "obj-16", 0 ],
                    "source": [ "obj-13", 0 ]
                }
            },
            {
                "patchline": {
                    "destination": [ "obj-29", 2 ],
                    "source": [ "obj-14", 0 ]
                }
            },
            {
                "patchline": {
                    "destination": [ "obj-29", 3 ],
                    "source": [ "obj-15", 0 ]
                }
            },
            {
                "patchline": {
                    "destination": [ "obj-29", 4 ],
                    "source": [ "obj-16", 0 ]
                }
            },
            {
                "patchline": {
                    "destination": [ "obj-32", 0 ],
                    "source": [ "obj-17", 0 ]
                }
            },
            {
                "patchline": {
                    "destination": [ "obj-25", 1 ],
                    "source": [ "obj-2", 1 ]
                }
            },
            {
                "patchline": {
                    "destination": [ "obj-25", 0 ],
                    "source": [ "obj-2", 0 ]
                }
            },
            {
                "patchline": {
                    "destination": [ "obj-17", 0 ],
                    "order": 0,
                    "source": [ "obj-20", 0 ]
                }
            },
            {
                "patchline": {
                    "destination": [ "obj-21", 0 ],
                    "order": 1,
                    "source": [ "obj-20", 0 ]
                }
            },
            {
                "patchline": {
                    "destination": [ "obj-38", 0 ],
                    "order": 2,
                    "source": [ "obj-20", 0 ]
                }
            },
            {
                "patchline": {
                    "destination": [ "obj-15", 1 ],
                    "order": 1,
                    "source": [ "obj-21", 0 ]
                }
            },
            {
                "patchline": {
                    "destination": [ "obj-16", 1 ],
                    "order": 0,
                    "source": [ "obj-21", 0 ]
                }
            },
            {
                "patchline": {
                    "destination": [ "obj-5", 1 ],
                    "order": 2,
                    "source": [ "obj-21", 0 ]
                }
            },
            {
                "patchline": {
                    "destination": [ "obj-47", 0 ],
                    "source": [ "obj-22", 0 ]
                }
            },
            {
                "patchline": {
                    "destination": [ "obj-47", 0 ],
                    "source": [ "obj-23", 0 ]
                }
            },
            {
                "patchline": {
                    "destination": [ "obj-24", 0 ],
                    "source": [ "obj-25", 0 ]
                }
            },
            {
                "patchline": {
                    "destination": [ "obj-31", 0 ],
                    "source": [ "obj-25", 1 ]
                }
            },
            {
                "patchline": {
                    "destination": [ "obj-28", 0 ],
                    "order": 2,
                    "source": [ "obj-26", 0 ]
                }
            },
            {
                "patchline": {
                    "destination": [ "obj-37", 0 ],
                    "order": 1,
                    "source": [ "obj-26", 0 ]
                }
            },
            {
                "patchline": {
                    "destination": [ "obj-41", 0 ],
                    "order": 0,
                    "source": [ "obj-26", 0 ]
                }
            },
            {
                "patchline": {
                    "destination": [ "obj-32", 2 ],
                    "source": [ "obj-27", 0 ]
                }
            },
            {
                "patchline": {
                    "destination": [ "obj-38", 0 ],
                    "source": [ "obj-28", 0 ]
                }
            },
            {
                "patchline": {
                    "destination": [ "obj-58", 0 ],
                    "source": [ "obj-29", 0 ]
                }
            },
            {
                "patchline": {
                    "destination": [ "obj-1", 0 ],
                    "order": 3,
                    "source": [ "obj-3", 0 ]
                }
            },
            {
                "patchline": {
                    "destination": [ "obj-10", 0 ],
                    "order": 0,
                    "source": [ "obj-3", 0 ]
                }
            },
            {
                "patchline": {
                    "destination": [ "obj-8", 0 ],
                    "order": 2,
                    "source": [ "obj-3", 0 ]
                }
            },
            {
                "patchline": {
                    "destination": [ "obj-9", 0 ],
                    "order": 1,
                    "source": [ "obj-3", 0 ]
                }
            },
            {
                "patchline": {
                    "destination": [ "obj-58", 1 ],
                    "source": [ "obj-30", 0 ]
                }
            },
            {
                "patchline": {
                    "destination": [ "obj-30", 0 ],
                    "source": [ "obj-31", 0 ]
                }
            },
            {
                "patchline": {
                    "destination": [ "obj-30", 10 ],
                    "source": [ "obj-32", 9 ]
                }
            },
            {
                "patchline": {
                    "destination": [ "obj-30", 9 ],
                    "source": [ "obj-32", 8 ]
                }
            },
            {
                "patchline": {
                    "destination": [ "obj-30", 8 ],
                    "source": [ "obj-32", 7 ]
                }
            },
            {
                "patchline": {
                    "destination": [ "obj-30", 7 ],
                    "source": [ "obj-32", 6 ]
                }
            },
            {
                "patchline": {
                    "destination": [ "obj-30", 6 ],
                    "source": [ "obj-32", 5 ]
                }
            },
            {
                "patchline": {
                    "destination": [ "obj-30", 5 ],
                    "source": [ "obj-32", 4 ]
                }
            },
            {
                "patchline": {
                    "destination": [ "obj-30", 4 ],
                    "source": [ "obj-32", 3 ]
                }
            },
            {
                "patchline": {
                    "destination": [ "obj-30", 3 ],
                    "source": [ "obj-32", 2 ]
                }
            },
            {
                "patchline": {
                    "destination": [ "obj-30", 2 ],
                    "source": [ "obj-32", 1 ]
                }
            },
            {
                "patchline": {
                    "destination": [ "obj-30", 1 ],
                    "source": [ "obj-32", 0 ]
                }
            },
            {
                "patchline": {
                    "destination": [ "obj-35", 0 ],
                    "source": [ "obj-33", 0 ]
                }
            },
            {
                "patchline": {
                    "destination": [ "obj-39", 1 ],
                    "order": 4,
                    "source": [ "obj-34", 0 ]
                }
            },
            {
                "patchline": {
                    "destination": [ "obj-39", 0 ],
                    "order": 5,
                    "source": [ "obj-34", 0 ]
                }
            },
            {
                "patchline": {
                    "destination": [ "obj-61", 0 ],
                    "order": 1,
                    "source": [ "obj-34", 0 ]
                }
            },
            {
                "patchline": {
                    "destination": [ "obj-63", 0 ],
                    "order": 2,
                    "source": [ "obj-34", 0 ]
                }
            },
            {
                "patchline": {
                    "destination": [ "obj-64", 0 ],
                    "order": 0,
                    "source": [ "obj-34", 0 ]
                }
            },
            {
                "patchline": {
                    "destination": [ "obj-65", 0 ],
                    "order": 3,
                    "source": [ "obj-34", 0 ]
                }
            },
            {
                "patchline": {
                    "destination": [ "obj-34", 0 ],
                    "source": [ "obj-35", 0 ]
                }
            },
            {
                "patchline": {
                    "destination": [ "obj-47", 0 ],
                    "source": [ "obj-36", 0 ]
                }
            },
            {
                "patchline": {
                    "destination": [ "obj-35", 1 ],
                    "source": [ "obj-37", 0 ]
                }
            },
            {
                "patchline": {
                    "destination": [ "obj-29", 0 ],
                    "source": [ "obj-38", 0 ]
                }
            },
            {
                "patchline": {
                    "destination": [ "obj-35", 2 ],
                    "source": [ "obj-41", 0 ]
                }
            },
            {
                "patchline": {
                    "destination": [ "obj-47", 0 ],
                    "source": [ "obj-43", 0 ]
                }
            },
            {
                "patchline": {
                    "destination": [ "obj-47", 0 ],
                    "source": [ "obj-44", 0 ]
                }
            },
            {
                "patchline": {
                    "destination": [ "obj-47", 0 ],
                    "source": [ "obj-45", 0 ]
                }
            },
            {
                "patchline": {
                    "destination": [ "obj-15", 1 ],
                    "source": [ "obj-49", 0 ]
                }
            },
            {
                "patchline": {
                    "destination": [ "obj-29", 1 ],
                    "source": [ "obj-5", 0 ]
                }
            },
            {
                "patchline": {
                    "destination": [ "obj-7", 0 ],
                    "source": [ "obj-58", 0 ]
                }
            },
            {
                "patchline": {
                    "destination": [ "obj-5", 0 ],
                    "source": [ "obj-6", 0 ]
                }
            },
            {
                "patchline": {
                    "destination": [ "obj-32", 0 ],
                    "source": [ "obj-67", 0 ]
                }
            },
            {
                "patchline": {
                    "destination": [ "obj-32", 3 ],
                    "source": [ "obj-68", 0 ]
                }
            },
            {
                "patchline": {
                    "destination": [ "obj-32", 1 ],
                    "source": [ "obj-69", 0 ]
                }
            },
            {
                "patchline": {
                    "destination": [ "obj-82", 0 ],
                    "source": [ "obj-73", 0 ]
                }
            },
            {
                "patchline": {
                    "destination": [ "obj-67", 0 ],
                    "source": [ "obj-77", 0 ]
                }
            },
            {
                "patchline": {
                    "destination": [ "obj-11", 0 ],
                    "source": [ "obj-8", 0 ]
                }
            },
            {
                "patchline": {
                    "destination": [ "obj-12", 0 ],
                    "source": [ "obj-9", 0 ]
                }
            }
        ],
        "parameters": {
            "obj-17": [ "number[0]", "number[2]", 0 ],
            "obj-27": [ "flonum[1]", "flonum", 0 ],
            "obj-34": [ "live.gain~", "live.gain~", 0 ],
            "obj-68": [ "number[6]", "number[2]", 0 ],
            "obj-69": [ "number[7]", "number[2]", 0 ],
            "inherited_shortname": 1
        },
        "autosave": 0
    }
}